<svg xmlns="http://www.w3.org/2000/svg" xmlns:xlink="http://www.w3.org/1999/xlink" id="Capa_1" x="0px" y="0px" viewBox="0 0 30 30" style="enable-background:new 0 0 30 30;" xml:space="preserve">
<style type="text/css">
	.st0{fill:#FFFFFF;}
</style>
<path class="st0" d="M19.4,23c0.2,0,0.4,0.2,0.4,0.4v1.8c0,0.2-0.2,0.4-0.4,0.4c-0.2,0-0.4-0.2-0.4-0.4v-1.8  C19,23.2,19.2,23,19.4,23z"></path>
<path class="st0" d="M10.8,23c0.2,0,0.4,0.2,0.4,0.4v1.8c0,0.2-0.2,0.4-0.4,0.4s-0.4-0.2-0.4-0.4v-1.8C10.4,23.2,10.6,23,10.8,23z"></path>
<path class="st0" d="M22.7,14.1c0.9-0.5,2.7-0.5,2.8-0.5c0.2,0,0.4,0.2,0.4,0.4c0,0.2-0.2,0.4-0.4,0.4c-0.5,0-1.8,0.1-2.4,0.4  c-0.1,0-0.1,0-0.2,0c-0.1,0-0.3-0.1-0.4-0.2C22.4,14.5,22.5,14.2,22.7,14.1z"></path>
<path class="st0" d="M26.8,22.1c0.2,0,0.4,0.2,0.4,0.4v2.7c0,0.2-0.2,0.4-0.4,0.4s-0.4-0.2-0.4-0.4v-2.7  C26.4,22.3,26.6,22.1,26.8,22.1z"></path>
<path class="st0" d="M2.3,20.5l1.6-0.8c0,0,0,0,0,0l0-0.8c-0.7-0.5-1.1-1.2-1.3-2.1c-0.3-0.5-0.5-1.1-0.5-1.8c0-1.2,0.5-2.2,1.4-2.8  c0-0.2-0.1-0.3-0.1-0.5c0-1.1,1-2,2.1-2s2.1,0.9,2.1,2c0,0.2,0,0.3-0.1,0.5c0.5,0.4,0.9,0.9,1.1,1.5c0.1-1,0.2-2.2,0.3-3.6  C9.2,8.2,9.9,6.6,11,5.5c1.1-1.1,2.5-1.7,4.2-1.7s3.1,0.6,4.2,1.7c1.1,1.1,1.7,2.7,1.9,4.5c0,0.5,0.1,1,0.1,1.4h3.8  c1.4,0,2.6,1.2,2.6,2.6v0c0,0.3-0.1,0.7-0.2,1l-0.2,0.4v0.7c0,1.1-0.5,2-1.3,2.6v0.6c0,0.1,0.1,0.1,0.1,0.2l1.7,0.5  c0.7,0.2,1.2,0.9,1.2,1.7v3.4c0,0.2-0.2,0.4-0.4,0.4c-0.2,0-0.4-0.2-0.4-0.4v-3.4c0-0.4-0.3-0.8-0.6-0.9l-1.7-0.5  c-0.1,0-0.1,0-0.2-0.1l-1,1.1v3.8c0,0.2-0.2,0.4-0.4,0.4c-0.2,0-0.4-0.2-0.4-0.4v-3.8l-1-1.1c-0.1,0.1-0.3,0.1-0.4,0.1L22,20.5  c0.6,0.4,0.9,1.1,0.9,1.8v2.8c0,0.2-0.2,0.4-0.4,0.4c-0.2,0-0.4-0.2-0.4-0.4v-2.8c0-0.5-0.3-1-0.8-1.2L19,20  c-0.7,1.5-2.2,2.4-3.8,2.4c-1.6,0-3.1-0.9-3.8-2.4L9,21.1c-0.5,0.2-0.8,0.7-0.8,1.2v2.8c0,0.2-0.2,0.4-0.4,0.4s-0.4-0.2-0.4-0.4  v-2.8c0-0.5,0.2-1,0.5-1.4l-0.6-0.3L6.8,21c-0.3,0.3-0.7,0.5-1.2,0.5c-0.4,0-0.8-0.2-1.2-0.5L4,20.6l-1.4,0.7  c-0.3,0.2-0.5,0.5-0.5,0.8v3.1c0,0.2-0.2,0.4-0.4,0.4c-0.2,0-0.4-0.2-0.4-0.4v-3.1C1.3,21.4,1.7,20.8,2.3,20.5z M5.6,10.5  c-0.7,0-1.3,0.5-1.3,1.1c0,0,0,0.1,0,0.1c0.4-0.2,0.9-0.3,1.3-0.3c0.5,0,0.9,0.1,1.3,0.3c0,0,0-0.1,0-0.1C6.9,11,6.3,10.5,5.6,10.5z   M24.2,20.6l0.9-0.9c0-0.1,0-0.2,0-0.2v-0.2c-0.3,0.1-0.5,0.1-0.8,0.1c0,0-0.1,0-0.1,0c-0.3,0-0.6,0-0.9-0.1v0.2c0,0.1,0,0.2,0,0.2  L24.2,20.6z M24.3,18.5c1.2,0,2.1-1.1,2.1-2.4v-0.8c0-0.1,0-0.1,0-0.2l0.2-0.5c0.1-0.2,0.1-0.4,0.1-0.6v0c0-1-0.8-1.8-1.8-1.8h-3.5  V14c0,0.3,0.1,0.6,0.2,0.8l0.2,0.4c0,0.1,0,0.1,0,0.2v0.9c0,0.6,0.2,1.2,0.7,1.6C23.1,18.3,23.7,18.5,24.3,18.5z M20.9,20l1.3-0.4  c0.3-0.1,0.3-0.1,0.3-0.2l0-0.6c-0.1-0.1-0.3-0.2-0.4-0.3c-0.1-0.1-0.2-0.2-0.2-0.3c-0.1,0.1-0.2,0.3-0.3,0.3  c-0.3,0.2-0.9,0.6-1.8,0.9L20.9,20z M15.1,21.6c1.3,0,2.5-0.8,3.1-1.9l-0.6-0.3c-0.5-0.2-0.8-0.7-0.8-1.2v-1  c-0.5,0.2-1.1,0.3-1.8,0.3c-0.6,0-1.2-0.1-1.8-0.3v1c0,0.5-0.3,1-0.8,1.2L12,19.7C12.6,20.9,13.8,21.6,15.1,21.6z M11.6,19l0.7-0.3  c0.2-0.1,0.3-0.2,0.3-0.4v-1.4c-1.3-0.9-2.2-2.4-2.2-4.1v-0.8c0-0.5,0.2-1,0.6-1.3c0.8-0.7,2.7-2,5.8-2.3c0.2,0,0.4,0.1,0.4,0.4  c0,0.2-0.1,0.4-0.4,0.5c-3,0.3-4.6,1.5-5.4,2.1c-0.2,0.2-0.3,0.4-0.3,0.7v0.8c0,2.2,1.8,4,3.9,4s3.9-1.8,3.9-4v-0.3  c0-0.2-0.1-0.3-0.2-0.4c-0.5-0.3-1.2-0.9-1.5-1.8c-0.1-0.2,0-0.5,0.3-0.5c0.2-0.1,0.4,0,0.5,0.3c0.2,0.7,0.7,1.1,1.1,1.3  c0.4,0.2,0.6,0.7,0.6,1.1v0.3c0,1.7-0.9,3.2-2.2,4.1v1.4c0,0.2,0.1,0.4,0.3,0.4l0.7,0.3c1.3-0.4,2.1-0.8,2.5-1.1c0,0,0,0,0,0  c-0.1-0.9-0.5-3.3-0.8-7.8c-0.1-1.6-0.7-3-1.6-4c-0.9-0.9-2.2-1.4-3.6-1.4c-1.4,0-2.7,0.5-3.6,1.4c-0.9,1-1.5,2.3-1.6,4  c-0.3,4.4-0.7,6.9-0.8,7.8c0,0,0,0,0,0C9.5,18.1,10.3,18.6,11.6,19z M7.3,19.7C7.3,19.7,7.3,19.7,7.3,19.7l1.3,0.7c0,0,0,0,0,0  l1.8-0.8c-0.9-0.3-1.5-0.7-1.8-0.9c-0.3-0.2-0.4-0.5-0.4-0.9c0,0,0,0,0-0.1c-0.2,0.5-0.6,0.9-1,1.2V19.7z M5,20.4  c0.3,0.3,0.9,0.3,1.2,0l0.4-0.4c-0.1-0.1-0.1-0.3-0.1-0.4v-0.4c-0.3,0.1-0.6,0.1-0.9,0.1c-0.3,0-0.6,0-0.9-0.1l0,0.4  c0,0.1,0,0.3-0.1,0.4L5,20.4z M5.6,18.5c1.1,0,2.1-0.9,2.2-2c0-0.1,0-0.1,0.1-0.2c0.3-0.4,0.4-0.9,0.4-1.4c0-1.5-1.2-2.7-2.6-2.7  c-1.4,0-2.6,1.2-2.6,2.7c0,0.3,0,0.6,0.1,0.8c1.1-1.2,3.2-1.7,3.3-1.7c0.1,0,0.2,0,0.3,0.1c0.1,0.1,0.2,0.2,0.2,0.3  c0,0,0,0.3,0.3,0.6c0.2,0.2,0.2,0.4,0,0.6c-0.2,0.2-0.4,0.2-0.6,0c-0.2-0.2-0.4-0.5-0.4-0.7c-0.7,0.2-2.1,0.7-2.7,1.7  C3.6,17.7,4.5,18.5,5.6,18.5z"></path>
<path class="st0" d="M3.5,22.6c0.2,0,0.4,0.2,0.4,0.4v2.1c0,0.2-0.2,0.4-0.4,0.4c-0.2,0-0.4-0.2-0.4-0.4v-2.1  C3,22.8,3.2,22.6,3.5,22.6z"></path>
</svg>