<svg version="1.1" id="Capa_1" xmlns="http://www.w3.org/2000/svg" xmlns:xlink="http://www.w3.org/1999/xlink" x="0px" y="0px"
	 viewBox="0 0 30 30" style="enable-background:new 0 0 30 30;" xml:space="preserve">
<style type="text/css">
	.st0{fill-rule:evenodd;clip-rule:evenodd;fill:#FFFFFF;}
</style>
<path class="st0" d="M20.8,1.9H9c-1.5,0-2.6,1.2-2.6,2.8v12.2c0,1.5,1.2,2.8,2.6,2.8h4v1.8h-0.8c-1,0-1.8,0.9-1.8,1.9v0.8H8.3
	c-1.1,0-1.9,0.9-1.9,2c0,1.1,0.9,2,1.9,2h13.2c1.1,0,1.9-0.9,1.9-2c0-1.1-0.9-2-1.9-2h-2.1v-0.8c0-1-0.8-1.9-1.8-1.9h-0.8v-1.8h4
	c1.5,0,2.6-1.2,2.6-2.8V4.7C23.4,3.1,22.2,1.9,20.8,1.9z M22.5,26.1c0,0.5-0.4,1-0.9,1H8.3c-0.5,0-0.9-0.4-0.9-1c0-0.5,0.4-1,0.9-1
	h13.2C22,25.1,22.5,25.6,22.5,26.1z M16.3,22.4h1.3c0.5,0,0.8,0.4,0.8,0.9v0.8h-7.1v-0.8c0-0.5,0.4-0.9,0.8-0.9h1.3
	c0.3,0,0.5-0.2,0.5-0.5v-2.3h1.8v2.3C15.8,22.2,16,22.4,16.3,22.4z M20.8,18.6h-5.4v-0.9c0-0.3-0.2-0.5-0.5-0.5
	c-0.3,0-0.5,0.2-0.5,0.5v0.9H9c-0.9,0-1.7-0.8-1.7-1.7v-5.6h0.9c0.3,0,0.5-0.2,0.5-0.5c0-0.3-0.2-0.5-0.5-0.5H7.4V4.7
	c0-1,0.7-1.7,1.7-1.7h5.4v0.9c0,0.3,0.2,0.5,0.5,0.5c0.3,0,0.5-0.2,0.5-0.5V2.9h5.4c0.9,0,1.7,0.8,1.7,1.7v5.6h-0.9
	c-0.3,0-0.5,0.2-0.5,0.5c0,0.3,0.2,0.5,0.5,0.5h0.9v5.6C22.5,17.9,21.7,18.6,20.8,18.6z"/>
<path class="st0" d="M14.9,5.2c-0.5,0-1,0.1-1.5,0.2C13.1,5.5,13,5.7,13.1,6c0.1,0.3,0.3,0.4,0.6,0.3c0.4-0.1,0.8-0.2,1.2-0.2
	c2.4,0,4.4,2.1,4.4,4.6s-2,4.6-4.4,4.6s-4.4-2.1-4.4-4.6c0-0.7,0.2-1.5,0.5-2.1c0.1-0.3,0-0.6-0.2-0.7c-0.2-0.1-0.5,0-0.7,0.2
	C9.7,9,9.5,9.9,9.5,10.8c0,3.1,2.4,5.6,5.4,5.6c3,0,5.4-2.5,5.4-5.6C20.3,7.7,17.9,5.2,14.9,5.2z"/>
<path class="st0" d="M14.9,14.2c1.8,0,3.2-1.5,3.2-3.4c0-1.9-1.5-3.4-3.2-3.4s-3.2,1.5-3.2,3.4C11.7,12.6,13.1,14.2,14.9,14.2z
	 M14.9,8.4c1.2,0,2.3,1.1,2.3,2.3c0,1.3-1,2.3-2.3,2.3s-2.3-1.1-2.3-2.3C12.7,9.5,13.7,8.4,14.9,8.4z"/>
<path class="st0" d="M11.8,7.3c0.3,0,0.5-0.2,0.5-0.5c0-0.3-0.2-0.5-0.5-0.5c-0.3,0-0.5,0.2-0.5,0.5C11.3,7.1,11.5,7.3,11.8,7.3z"/>
</svg>
